<svg width="19" height="21" viewBox="0 0 19 21" fill="none" xmlns="http://www.w3.org/2000/svg">
<path d="M17.8563 16.8242L14.3406 13.3086C14.1649 13.168 13.9539 13.0625 13.743 13.0625H13.1805C14.1297 11.832 14.7274 10.2852 14.7274 8.5625C14.7274 4.55469 11.4227 1.25 7.41486 1.25C3.37189 1.25 0.102364 4.55469 0.102364 8.5625C0.102364 12.6055 3.37189 15.875 7.41486 15.875C9.10236 15.875 10.6492 15.3125 11.9149 14.3281V14.9258C11.9149 15.1367 11.9852 15.3477 12.161 15.5234L15.6414 19.0039C15.993 19.3555 16.5203 19.3555 16.8367 19.0039L17.8211 18.0195C18.1727 17.7031 18.1727 17.1758 17.8563 16.8242ZM7.41486 13.0625C4.91877 13.0625 2.91486 11.0586 2.91486 8.5625C2.91486 6.10156 4.91877 4.0625 7.41486 4.0625C9.8758 4.0625 11.9149 6.10156 11.9149 8.5625C11.9149 11.0586 9.8758 13.0625 7.41486 13.0625Z" fill="white"/>
</svg>
